<?xml version="1.0" encoding="UTF-8" standalone="no"?>
<!DOCTYPE svg PUBLIC "-//W3C//DTD SVG 1.1//EN"
 "http://www.w3.org/Graphics/SVG/1.1/DTD/svg11.dtd">
<!-- Generated by graphviz version 2.40.1 (20161225.0304)
 -->
<!-- Title: g Pages: 1 -->
<svg width="133pt" height="180pt"
 viewBox="0.00 0.00 133.21 180.39" xmlns="http://www.w3.org/2000/svg" xmlns:xlink="http://www.w3.org/1999/xlink">
<g id="graph0" class="graph" transform="scale(1 1) rotate(0) translate(4 176.3933)">
<title>g</title>
<polygon fill="#ffffff" stroke="transparent" points="-4,4 -4,-176.3933 129.2098,-176.3933 129.2098,4 -4,4"/>
<!-- s0 -->
<g id="node1" class="node">
<title>s0</title>
<ellipse fill="none" stroke="#000000" cx="33.3615" cy="-111.545" rx="18.724" ry="18.724"/>
<ellipse fill="none" stroke="#000000" cx="33.3615" cy="-111.545" rx="22.6977" ry="22.6977"/>
<text text-anchor="middle" x="33.3615" y="-107.845" font-family="Times,serif" font-size="14.00" fill="#000000">s0</text>
</g>
<!-- s0&#45;&gt;s0 -->
<g id="edge1" class="edge">
<title>s0&#45;&gt;s0</title>
<path fill="none" stroke="#000000" d="M56.0449,-115.2501C65.8311,-115.5535 74.2098,-114.3184 74.2098,-111.545 74.2098,-109.8116 70.9369,-108.6791 66.093,-108.1476"/>
<polygon fill="#000000" stroke="#000000" points="66.1474,-104.6477 56.0449,-107.8398 65.9331,-111.6444 66.1474,-104.6477"/>
<text text-anchor="middle" x="79.2098" y="-107.845" font-family="Times,serif" font-size="14.00" fill="#000000">A</text>
</g>
<!-- s0&#45;&gt;s0 -->
<g id="edge3" class="edge">
<title>s0&#45;&gt;s0</title>
<path fill="none" stroke="#000000" d="M55.3964,-117.9459C73.4551,-120.5927 92.2098,-118.459 92.2098,-111.545 92.2098,-105.9273 79.8288,-103.4655 65.4997,-104.1594"/>
<polygon fill="#000000" stroke="#000000" points="65.0098,-100.6905 55.3964,-105.1441 65.6888,-107.6575 65.0098,-100.6905"/>
<text text-anchor="middle" x="103.7098" y="-107.845" font-family="Times,serif" font-size="14.00" fill="#000000">A,B</text>
</g>
<!-- s1 -->
<g id="node2" class="node">
<title>s1</title>
<ellipse fill="none" stroke="#000000" cx="33.3615" cy="-18.8483" rx="18.6979" ry="18.6979"/>
<text text-anchor="middle" x="33.3615" y="-15.1483" font-family="Times,serif" font-size="14.00" fill="#000000">s1</text>
</g>
<!-- s0&#45;&gt;s1 -->
<g id="edge2" class="edge">
<title>s0&#45;&gt;s1</title>
<path fill="none" stroke="#000000" d="M16.8241,-95.5948C10.7262,-88.6011 4.5351,-79.8939 1.3615,-70.6967 -2.6279,-59.135 3.5143,-47.4403 11.4498,-38.0913"/>
<polygon fill="#000000" stroke="#000000" points="13.9905,-40.4987 18.3544,-30.8443 8.9224,-35.6701 13.9905,-40.4987"/>
<text text-anchor="middle" x="6.3615" y="-59.4967" font-family="Times,serif" font-size="14.00" fill="#000000">B</text>
</g>
<!-- s1&#45;&gt;s0 -->
<g id="edge4" class="edge">
<title>s1&#45;&gt;s0</title>
<path fill="none" stroke="#000000" d="M33.3615,-37.7571C33.3615,-49.4896 33.3615,-64.8878 33.3615,-78.5811"/>
<polygon fill="#000000" stroke="#000000" points="29.8616,-78.6312 33.3615,-88.6312 36.8616,-78.6312 29.8616,-78.6312"/>
<text text-anchor="middle" x="38.3615" y="-59.4967" font-family="Times,serif" font-size="14.00" fill="#000000">A</text>
</g>
<!-- s1&#45;&gt;s0 -->
<g id="edge6" class="edge">
<title>s1&#45;&gt;s0</title>
<path fill="none" stroke="#000000" d="M39.7954,-36.6057C41.6566,-42.5875 43.4351,-49.3548 44.3615,-55.6967 45.5136,-63.5835 44.8478,-72.0445 43.3952,-79.9348"/>
<polygon fill="#000000" stroke="#000000" points="39.9378,-79.3538 41.1193,-89.8826 46.7615,-80.9151 39.9378,-79.3538"/>
<text text-anchor="middle" x="55.8615" y="-59.4967" font-family="Times,serif" font-size="14.00" fill="#000000">A,B</text>
</g>
<!-- s1&#45;&gt;s1 -->
<g id="edge5" class="edge">
<title>s1&#45;&gt;s1</title>
<path fill="none" stroke="#000000" d="M50.8003,-26.6451C60.8523,-28.2363 70.2098,-25.6374 70.2098,-18.8483 70.2098,-14.4991 66.3695,-11.8695 60.9664,-10.9595"/>
<polygon fill="#000000" stroke="#000000" points="60.7681,-7.461 50.8003,-11.0515 60.8316,-14.4608 60.7681,-7.461"/>
<text text-anchor="middle" x="75.2098" y="-15.1483" font-family="Times,serif" font-size="14.00" fill="#000000">B</text>
</g>
<!-- __start0 -->
<g id="node3" class="node">
<title>__start0</title>
</g>
<!-- __start0&#45;&gt;s0 -->
<g id="edge7" class="edge">
<title>__start0&#45;&gt;s0</title>
<path fill="none" stroke="#000000" d="M33.3615,-171.2156C33.3615,-168.3627 33.3615,-156.9166 33.3615,-144.8008"/>
<polygon fill="#000000" stroke="#000000" points="36.8616,-144.6399 33.3615,-134.64 29.8616,-144.64 36.8616,-144.6399"/>
</g>
</g>
</svg>
