<?xml version="1.0" encoding="UTF-8" standalone="no"?>
<!DOCTYPE svg PUBLIC "-//W3C//DTD SVG 1.1//EN"
 "http://www.w3.org/Graphics/SVG/1.1/DTD/svg11.dtd">
<!-- Generated by graphviz version 2.40.1 (20161225.0304)
 -->
<!-- Title: %3 Pages: 1 -->
<svg width="182pt" height="212pt"
 viewBox="0.00 0.00 181.70 212.00" xmlns="http://www.w3.org/2000/svg" xmlns:xlink="http://www.w3.org/1999/xlink">
<g id="graph0" class="graph" transform="scale(1 1) rotate(0) translate(4 208)">
<title>%3</title>
<polygon fill="#ffffff" stroke="transparent" points="-4,4 -4,-208 177.6972,-208 177.6972,4 -4,4"/>
<!-- fake -->
<g id="node1" class="node">
<title>fake</title>
</g>
<!-- 1 -->
<g id="node3" class="node">
<title>1</title>
<ellipse fill="none" stroke="#000000" cx="51.6972" cy="-109" rx="18" ry="18"/>
<ellipse fill="none" stroke="#000000" cx="51.6972" cy="-109" rx="22" ry="22"/>
<text text-anchor="middle" x="51.6972" y="-105.3" font-family="Times,serif" font-size="14.00" fill="#000000">1</text>
</g>
<!-- fake&#45;&gt;1 -->
<g id="edge1" class="edge">
<title>fake&#45;&gt;1</title>
<path fill="none" stroke="#000000" stroke-width="2" d="M51.6972,-167.7521C51.6972,-159.8888 51.6972,-150.4498 51.6972,-141.4612"/>
<polygon fill="#000000" stroke="#000000" stroke-width="2" points="55.1973,-141.2376 51.6972,-131.2377 48.1973,-141.2377 55.1973,-141.2376"/>
</g>
<!-- 0 -->
<g id="node2" class="node">
<title>0</title>
<ellipse fill="none" stroke="#000000" cx="51.6972" cy="-18" rx="27" ry="18"/>
<text text-anchor="middle" x="51.6972" y="-14.3" font-family="Times,serif" font-size="14.00" fill="#000000">0</text>
</g>
<!-- 0&#45;&gt;0 -->
<g id="edge2" class="edge">
<title>0&#45;&gt;0</title>
<path fill="none" stroke="#000000" d="M78.4921,-21.9288C88.4776,-22.0577 96.6972,-20.748 96.6972,-18 96.6972,-16.2825 93.4864,-15.1268 88.6405,-14.5331"/>
<polygon fill="#000000" stroke="#000000" points="88.6409,-11.0296 78.4921,-14.0712 88.3226,-18.0223 88.6409,-11.0296"/>
<text text-anchor="middle" x="108.1972" y="-14.3" font-family="Times,serif" font-size="14.00" fill="#000000">{B}</text>
</g>
<!-- 0&#45;&gt;0 -->
<g id="edge3" class="edge">
<title>0&#45;&gt;0</title>
<path fill="none" stroke="#000000" d="M76.7741,-24.7676C97.4824,-27.4746 119.6972,-25.2188 119.6972,-18 119.6972,-11.9656 104.1737,-9.3992 86.9834,-10.3008"/>
<polygon fill="#000000" stroke="#000000" points="86.4147,-6.8381 76.7741,-11.2324 87.0508,-13.8091 86.4147,-6.8381"/>
<text text-anchor="middle" x="126.6972" y="-14.3" font-family="Times,serif" font-size="14.00" fill="#000000">{}</text>
</g>
<!-- 0&#45;&gt;1 -->
<g id="edge4" class="edge">
<title>0&#45;&gt;1</title>
<path fill="none" stroke="#000000" d="M35.1895,-32.376C26.0223,-42.1812 17.2794,-55.7464 21.6972,-69 23.5964,-74.6977 26.6604,-80.2373 30.1207,-85.2881"/>
<polygon fill="#000000" stroke="#000000" points="27.3467,-87.4225 36.1828,-93.2684 32.9209,-83.1882 27.3467,-87.4225"/>
<text text-anchor="middle" x="41.6972" y="-57.8" font-family="Times,serif" font-size="14.00" fill="#000000">{A, B}</text>
</g>
<!-- 0&#45;&gt;1 -->
<g id="edge5" class="edge">
<title>0&#45;&gt;1</title>
<path fill="none" stroke="#000000" d="M57.6532,-35.7451C59.3067,-41.4999 60.8737,-47.9584 61.6972,-54 62.7636,-61.823 62.1423,-70.2281 60.7984,-78.0554"/>
<polygon fill="#000000" stroke="#000000" points="57.3585,-77.4047 58.6966,-87.9147 64.2047,-78.8642 57.3585,-77.4047"/>
<text text-anchor="middle" x="73.6972" y="-57.8" font-family="Times,serif" font-size="14.00" fill="#000000">{A}</text>
</g>
<!-- 1&#45;&gt;0 -->
<g id="edge6" class="edge">
<title>1&#45;&gt;0</title>
<path fill="none" stroke="#000000" d="M69.6646,-95.4541C77.3886,-88.4993 85.5771,-79.319 89.6972,-69 94.2848,-57.5101 87.5771,-46.3082 78.5827,-37.3432"/>
<polygon fill="#000000" stroke="#000000" points="80.8572,-34.6823 71.0513,-30.6703 76.215,-39.9216 80.8572,-34.6823"/>
<text text-anchor="middle" x="102.1972" y="-57.8" font-family="Times,serif" font-size="14.00" fill="#000000">{B}</text>
</g>
<!-- 1&#45;&gt;0 -->
<g id="edge7" class="edge">
<title>1&#45;&gt;0</title>
<path fill="none" stroke="#000000" d="M31.9683,-99.1088C14.6403,-88.9648 -6.4859,-72.1418 2.6972,-54 6.7748,-45.9445 13.5974,-39.2532 20.8756,-33.9137"/>
<polygon fill="#000000" stroke="#000000" points="23.0471,-36.6753 29.4917,-28.2659 19.2096,-30.8209 23.0471,-36.6753"/>
<text text-anchor="middle" x="9.6972" y="-57.8" font-family="Times,serif" font-size="14.00" fill="#000000">{}</text>
</g>
<!-- 1&#45;&gt;1 -->
<g id="edge8" class="edge">
<title>1&#45;&gt;1</title>
<path fill="none" stroke="#000000" d="M73.5039,-112.6914C83.2597,-113.043 91.6972,-111.8125 91.6972,-109 91.6972,-107.2422 88.4013,-106.1024 83.5476,-105.5805"/>
<polygon fill="#000000" stroke="#000000" points="83.595,-102.0806 73.5039,-105.3086 83.4054,-109.078 83.595,-102.0806"/>
<text text-anchor="middle" x="111.6972" y="-105.3" font-family="Times,serif" font-size="14.00" fill="#000000">{A, B}</text>
</g>
<!-- 1&#45;&gt;1 -->
<g id="edge9" class="edge">
<title>1&#45;&gt;1</title>
<path fill="none" stroke="#000000" d="M73.1444,-114.7404C98.2795,-118.3353 131.6972,-116.4219 131.6972,-109 131.6972,-102.5349 106.3397,-100.2495 83.1882,-102.144"/>
<polygon fill="#000000" stroke="#000000" points="82.6969,-98.677 73.1444,-103.2596 83.4697,-105.6342 82.6969,-98.677"/>
<text text-anchor="middle" x="143.6972" y="-105.3" font-family="Times,serif" font-size="14.00" fill="#000000">{A}</text>
</g>
</g>
</svg>
