<?xml version="1.0" encoding="UTF-8" standalone="no"?>
<!DOCTYPE svg PUBLIC "-//W3C//DTD SVG 1.1//EN"
 "http://www.w3.org/Graphics/SVG/1.1/DTD/svg11.dtd">
<!-- Generated by graphviz version 2.40.1 (20161225.0304)
 -->
<!-- Title: %3 Pages: 1 -->
<svg width="157pt" height="125pt"
 viewBox="0.00 0.00 157.00 125.00" xmlns="http://www.w3.org/2000/svg" xmlns:xlink="http://www.w3.org/1999/xlink">
<g id="graph0" class="graph" transform="scale(1 1) rotate(0) translate(4 121)">
<title>%3</title>
<polygon fill="#ffffff" stroke="transparent" points="-4,4 -4,-121 153,-121 153,4 -4,4"/>
<!-- fake -->
<g id="node1" class="node">
<title>fake</title>
</g>
<!-- 1 -->
<g id="node2" class="node">
<title>1</title>
<ellipse fill="none" stroke="#000000" cx="27" cy="-22" rx="18" ry="18"/>
<ellipse fill="none" stroke="#000000" cx="27" cy="-22" rx="22" ry="22"/>
<text text-anchor="middle" x="27" y="-18.3" font-family="Times,serif" font-size="14.00" fill="#000000">1</text>
</g>
<!-- fake&#45;&gt;1 -->
<g id="edge1" class="edge">
<title>fake&#45;&gt;1</title>
<path fill="none" stroke="#000000" stroke-width="2" d="M27,-80.7521C27,-72.8888 27,-63.4498 27,-54.4612"/>
<polygon fill="#000000" stroke="#000000" stroke-width="2" points="30.5001,-54.2376 27,-44.2377 23.5001,-54.2377 30.5001,-54.2376"/>
</g>
<!-- 1&#45;&gt;1 -->
<g id="edge2" class="edge">
<title>1&#45;&gt;1</title>
<path fill="none" stroke="#000000" d="M48.8066,-25.6914C58.5625,-26.043 67,-24.8125 67,-22 67,-20.2422 63.7041,-19.1024 58.8504,-18.5805"/>
<polygon fill="#000000" stroke="#000000" points="58.8977,-15.0806 48.8066,-18.3086 58.7082,-22.078 58.8977,-15.0806"/>
<text text-anchor="middle" x="79" y="-18.3" font-family="Times,serif" font-size="14.00" fill="#000000">{A}</text>
</g>
<!-- 1&#45;&gt;1 -->
<g id="edge3" class="edge">
<title>1&#45;&gt;1</title>
<path fill="none" stroke="#000000" d="M48.4252,-28.1652C68.424,-31.1644 91,-29.1094 91,-22 91,-16.1125 75.5176,-13.6913 58.8378,-14.7363"/>
<polygon fill="#000000" stroke="#000000" points="58.0028,-11.3049 48.4252,-15.8348 58.7373,-18.2662 58.0028,-11.3049"/>
<text text-anchor="middle" x="111" y="-18.3" font-family="Times,serif" font-size="14.00" fill="#000000">{A, B}</text>
</g>
</g>
</svg>
