<?xml version="1.0" encoding="UTF-8" standalone="no"?>
<!DOCTYPE svg PUBLIC "-//W3C//DTD SVG 1.1//EN"
 "http://www.w3.org/Graphics/SVG/1.1/DTD/svg11.dtd">
<!-- Generated by graphviz version 2.40.1 (20161225.0304)
 -->
<!-- Title: %3 Pages: 1 -->
<svg width="196pt" height="212pt"
 viewBox="0.00 0.00 195.95 212.00" xmlns="http://www.w3.org/2000/svg" xmlns:xlink="http://www.w3.org/1999/xlink">
<g id="graph0" class="graph" transform="scale(1 1) rotate(0) translate(4 208)">
<title>%3</title>
<polygon fill="#ffffff" stroke="transparent" points="-4,4 -4,-208 191.9471,-208 191.9471,4 -4,4"/>
<!-- fake -->
<g id="node1" class="node">
<title>fake</title>
</g>
<!-- 0 -->
<g id="node2" class="node">
<title>0</title>
<ellipse fill="none" stroke="#000000" cx="65.9471" cy="-109" rx="18" ry="18"/>
<ellipse fill="none" stroke="#000000" cx="65.9471" cy="-109" rx="22" ry="22"/>
<text text-anchor="middle" x="65.9471" y="-105.3" font-family="Times,serif" font-size="14.00" fill="#000000">0</text>
</g>
<!-- fake&#45;&gt;0 -->
<g id="edge1" class="edge">
<title>fake&#45;&gt;0</title>
<path fill="none" stroke="#000000" stroke-width="2" d="M65.9471,-167.7521C65.9471,-159.8888 65.9471,-150.4498 65.9471,-141.4612"/>
<polygon fill="#000000" stroke="#000000" stroke-width="2" points="69.4472,-141.2376 65.9471,-131.2377 62.4472,-141.2377 69.4472,-141.2376"/>
</g>
<!-- 0&#45;&gt;0 -->
<g id="edge2" class="edge">
<title>0&#45;&gt;0</title>
<path fill="none" stroke="#000000" d="M87.7537,-112.6914C97.5096,-113.043 105.9471,-111.8125 105.9471,-109 105.9471,-107.2422 102.6512,-106.1024 97.7975,-105.5805"/>
<polygon fill="#000000" stroke="#000000" points="97.8448,-102.0806 87.7537,-105.3086 97.6553,-109.078 97.8448,-102.0806"/>
<text text-anchor="middle" x="117.9471" y="-105.3" font-family="Times,serif" font-size="14.00" fill="#000000">{A}</text>
</g>
<!-- 0&#45;&gt;0 -->
<g id="edge3" class="edge">
<title>0&#45;&gt;0</title>
<path fill="none" stroke="#000000" d="M87.3723,-115.1652C107.3711,-118.1644 129.9471,-116.1094 129.9471,-109 129.9471,-103.1125 114.4647,-100.6913 97.7849,-101.7363"/>
<polygon fill="#000000" stroke="#000000" points="96.9499,-98.3049 87.3723,-102.8348 97.6844,-105.2662 96.9499,-98.3049"/>
<text text-anchor="middle" x="149.9471" y="-105.3" font-family="Times,serif" font-size="14.00" fill="#000000">{A, B}</text>
</g>
<!-- 1 -->
<g id="node3" class="node">
<title>1</title>
<ellipse fill="none" stroke="#000000" cx="65.9471" cy="-18" rx="27" ry="18"/>
<text text-anchor="middle" x="65.9471" y="-14.3" font-family="Times,serif" font-size="14.00" fill="#000000">1</text>
</g>
<!-- 0&#45;&gt;1 -->
<g id="edge4" class="edge">
<title>0&#45;&gt;1</title>
<path fill="none" stroke="#000000" d="M44.797,-101.6142C22.0319,-92.3941 -9.3688,-75.2226 2.9471,-54 9.3688,-42.9342 20.611,-34.9825 31.838,-29.4157"/>
<polygon fill="#000000" stroke="#000000" points="33.435,-32.5363 41.159,-25.2844 30.5985,-26.1367 33.435,-32.5363"/>
<text text-anchor="middle" x="14.4471" y="-57.8" font-family="Times,serif" font-size="14.00" fill="#000000">{B}</text>
</g>
<!-- 0&#45;&gt;1 -->
<g id="edge5" class="edge">
<title>0&#45;&gt;1</title>
<path fill="none" stroke="#000000" d="M54.886,-89.8566C50.1392,-79.3746 46.2355,-66.0927 48.9471,-54 49.673,-50.7627 50.7244,-47.4738 51.9536,-44.2664"/>
<polygon fill="#000000" stroke="#000000" points="55.1976,-45.5843 56.0274,-35.022 48.792,-42.7615 55.1976,-45.5843"/>
<text text-anchor="middle" x="55.9471" y="-57.8" font-family="Times,serif" font-size="14.00" fill="#000000">{}</text>
</g>
<!-- 1&#45;&gt;0 -->
<g id="edge6" class="edge">
<title>1&#45;&gt;0</title>
<path fill="none" stroke="#000000" d="M65.9471,-36.1556C65.9471,-47.8111 65.9471,-63.2722 65.9471,-76.9511"/>
<polygon fill="#000000" stroke="#000000" points="62.4472,-76.9714 65.9471,-86.9714 69.4472,-76.9715 62.4472,-76.9714"/>
<text text-anchor="middle" x="77.9471" y="-57.8" font-family="Times,serif" font-size="14.00" fill="#000000">{A}</text>
</g>
<!-- 1&#45;&gt;0 -->
<g id="edge7" class="edge">
<title>1&#45;&gt;0</title>
<path fill="none" stroke="#000000" d="M81.7359,-32.913C90.1539,-42.7228 98.0163,-56.0911 93.9471,-69 92.332,-74.1236 89.8006,-79.1619 86.9055,-83.843"/>
<polygon fill="#000000" stroke="#000000" points="83.8435,-82.1174 81.0354,-92.3334 89.6013,-86.0984 83.8435,-82.1174"/>
<text text-anchor="middle" x="114.9471" y="-57.8" font-family="Times,serif" font-size="14.00" fill="#000000">{A, B}</text>
</g>
<!-- 1&#45;&gt;1 -->
<g id="edge8" class="edge">
<title>1&#45;&gt;1</title>
<path fill="none" stroke="#000000" d="M92.742,-21.9288C102.7275,-22.0577 110.9471,-20.748 110.9471,-18 110.9471,-16.2825 107.7363,-15.1268 102.8904,-14.5331"/>
<polygon fill="#000000" stroke="#000000" points="102.8908,-11.0296 92.742,-14.0712 102.5724,-18.0223 102.8908,-11.0296"/>
<text text-anchor="middle" x="122.4471" y="-14.3" font-family="Times,serif" font-size="14.00" fill="#000000">{B}</text>
</g>
<!-- 1&#45;&gt;1 -->
<g id="edge9" class="edge">
<title>1&#45;&gt;1</title>
<path fill="none" stroke="#000000" d="M91.024,-24.7676C111.7323,-27.4746 133.9471,-25.2188 133.9471,-18 133.9471,-11.9656 118.4236,-9.3992 101.2333,-10.3008"/>
<polygon fill="#000000" stroke="#000000" points="100.6645,-6.8381 91.024,-11.2324 101.3007,-13.8091 100.6645,-6.8381"/>
<text text-anchor="middle" x="140.9471" y="-14.3" font-family="Times,serif" font-size="14.00" fill="#000000">{}</text>
</g>
</g>
</svg>
