<?xml version="1.0" encoding="UTF-8" standalone="no"?>
<!DOCTYPE svg PUBLIC "-//W3C//DTD SVG 1.1//EN"
 "http://www.w3.org/Graphics/SVG/1.1/DTD/svg11.dtd">
<!-- Generated by graphviz version 2.40.1 (20161225.0304)
 -->
<!-- Title: g Pages: 1 -->
<svg width="136pt" height="177pt"
 viewBox="0.00 0.00 135.53 177.00" xmlns="http://www.w3.org/2000/svg" xmlns:xlink="http://www.w3.org/1999/xlink">
<g id="graph0" class="graph" transform="scale(1 1) rotate(0) translate(4 173)">
<title>g</title>
<polygon fill="#ffffff" stroke="transparent" points="-4,4 -4,-173 131.5297,-173 131.5297,4 -4,4"/>
<!-- s0 -->
<g id="node1" class="node">
<title>s0</title>
<ellipse fill="none" stroke="#000000" cx="36.5297" cy="-109" rx="18" ry="18"/>
<ellipse fill="none" stroke="#000000" cx="36.5297" cy="-109" rx="22" ry="22"/>
<text text-anchor="middle" x="36.5297" y="-105.3" font-family="Times,serif" font-size="14.00" fill="#000000">0</text>
</g>
<!-- s0&#45;&gt;s0 -->
<g id="edge2" class="edge">
<title>s0&#45;&gt;s0</title>
<path fill="none" stroke="#000000" d="M58.3363,-112.6914C68.0922,-113.043 76.5297,-111.8125 76.5297,-109 76.5297,-107.2422 73.2338,-106.1024 68.38,-105.5805"/>
<polygon fill="#000000" stroke="#000000" points="68.4274,-102.0806 58.3363,-105.3086 68.2379,-109.078 68.4274,-102.0806"/>
<text text-anchor="middle" x="81.5297" y="-105.3" font-family="Times,serif" font-size="14.00" fill="#000000">A</text>
</g>
<!-- s0&#45;&gt;s0 -->
<g id="edge4" class="edge">
<title>s0&#45;&gt;s0</title>
<path fill="none" stroke="#000000" d="M57.6439,-115.3094C75.6253,-118.0953 94.5297,-115.9922 94.5297,-109 94.5297,-103.3188 82.0498,-100.8652 67.7251,-101.6392"/>
<polygon fill="#000000" stroke="#000000" points="67.2269,-98.1721 57.6439,-102.6906 67.9531,-105.1343 67.2269,-98.1721"/>
<text text-anchor="middle" x="106.0297" y="-105.3" font-family="Times,serif" font-size="14.00" fill="#000000">A,B</text>
</g>
<!-- s1 -->
<g id="node2" class="node">
<title>s1</title>
<ellipse fill="none" stroke="#000000" cx="36.5297" cy="-18" rx="18" ry="18"/>
<text text-anchor="middle" x="36.5297" y="-14.3" font-family="Times,serif" font-size="14.00" fill="#000000">1</text>
</g>
<!-- s0&#45;&gt;s1 -->
<g id="edge1" class="edge">
<title>s0&#45;&gt;s1</title>
<path fill="none" stroke="#000000" d="M19.5852,-94.8212C12.5749,-87.8564 5.2296,-78.8473 1.5297,-69 -3.0601,-56.7847 4.5933,-44.6749 13.9011,-35.3228"/>
<polygon fill="#000000" stroke="#000000" points="16.4286,-37.7568 21.5181,-28.4645 11.7447,-32.5547 16.4286,-37.7568"/>
</g>
<!-- s0&#45;&gt;s1 -->
<g id="edge3" class="edge">
<title>s0&#45;&gt;s1</title>
<path fill="none" stroke="#000000" d="M26.5563,-89.3001C22.4573,-78.8865 19.1616,-65.8403 21.5297,-54 22.228,-50.5081 23.2726,-46.9315 24.4916,-43.4525"/>
<polygon fill="#000000" stroke="#000000" points="27.7854,-44.6417 28.2464,-34.0569 21.2852,-42.044 27.7854,-44.6417"/>
<text text-anchor="middle" x="26.5297" y="-57.8" font-family="Times,serif" font-size="14.00" fill="#000000">B</text>
</g>
<!-- s1&#45;&gt;s0 -->
<g id="edge6" class="edge">
<title>s1&#45;&gt;s0</title>
<path fill="none" stroke="#000000" d="M36.5297,-36.1556C36.5297,-47.8111 36.5297,-63.2722 36.5297,-76.9511"/>
<polygon fill="#000000" stroke="#000000" points="33.0298,-76.9714 36.5297,-86.9714 40.0298,-76.9715 33.0298,-76.9714"/>
<text text-anchor="middle" x="41.5297" y="-57.8" font-family="Times,serif" font-size="14.00" fill="#000000">A</text>
</g>
<!-- s1&#45;&gt;s0 -->
<g id="edge8" class="edge">
<title>s1&#45;&gt;s0</title>
<path fill="none" stroke="#000000" d="M44.4125,-34.4696C46.8865,-40.4741 49.2932,-47.409 50.5297,-54 52.0925,-62.3306 51.0242,-71.273 48.9166,-79.4752"/>
<polygon fill="#000000" stroke="#000000" points="45.5752,-78.4336 45.9373,-89.0223 52.2574,-80.519 45.5752,-78.4336"/>
<text text-anchor="middle" x="62.0297" y="-57.8" font-family="Times,serif" font-size="14.00" fill="#000000">A,B</text>
</g>
<!-- s1&#45;&gt;s1 -->
<g id="edge5" class="edge">
<title>s1&#45;&gt;s1</title>
<path fill="none" stroke="#000000" d="M54.3114,-21.775C63.8446,-22.4165 72.5297,-21.1582 72.5297,-18 72.5297,-16.0755 69.3046,-14.8564 64.6278,-14.3429"/>
<polygon fill="#000000" stroke="#000000" points="64.3508,-10.8396 54.3114,-14.225 64.2707,-17.8391 64.3508,-10.8396"/>
</g>
<!-- s1&#45;&gt;s1 -->
<g id="edge7" class="edge">
<title>s1&#45;&gt;s1</title>
<path fill="none" stroke="#000000" d="M53.6714,-24.1447C71.1146,-27.7592 90.5297,-25.7109 90.5297,-18 90.5297,-11.7951 77.958,-9.2569 63.9584,-10.3855"/>
<polygon fill="#000000" stroke="#000000" points="63.0758,-6.976 53.6714,-11.8553 64.066,-13.9056 63.0758,-6.976"/>
<text text-anchor="middle" x="95.5297" y="-14.3" font-family="Times,serif" font-size="14.00" fill="#000000">B</text>
</g>
<!-- __start0 -->
<g id="node3" class="node">
<title>__start0</title>
</g>
<!-- __start0&#45;&gt;s0 -->
<g id="edge9" class="edge">
<title>__start0&#45;&gt;s0</title>
<path fill="none" stroke="#000000" d="M36.5297,-167.8318C36.5297,-164.9791 36.5297,-153.4119 36.5297,-141.2796"/>
<polygon fill="#000000" stroke="#000000" points="40.0298,-141.1344 36.5297,-131.1345 33.0298,-141.1345 40.0298,-141.1344"/>
</g>
</g>
</svg>
