<?xml version="1.0" encoding="UTF-8" standalone="no"?>
<!DOCTYPE svg PUBLIC "-//W3C//DTD SVG 1.1//EN"
 "http://www.w3.org/Graphics/SVG/1.1/DTD/svg11.dtd">
<!-- Generated by graphviz version 2.40.1 (20161225.0304)
 -->
<!-- Title: g Pages: 1 -->
<svg width="163pt" height="177pt"
 viewBox="0.00 0.00 163.00 177.00" xmlns="http://www.w3.org/2000/svg" xmlns:xlink="http://www.w3.org/1999/xlink">
<g id="graph0" class="graph" transform="scale(1 1) rotate(0) translate(4 173)">
<title>g</title>
<polygon fill="#ffffff" stroke="transparent" points="-4,4 -4,-173 159,-173 159,4 -4,4"/>
<!-- s0 -->
<g id="node1" class="node">
<title>s0</title>
<ellipse fill="none" stroke="#000000" cx="22" cy="-109" rx="18" ry="18"/>
<ellipse fill="none" stroke="#000000" cx="22" cy="-109" rx="22" ry="22"/>
<text text-anchor="middle" x="22" y="-105.3" font-family="Times,serif" font-size="14.00" fill="#000000">0</text>
</g>
<!-- s0&#45;&gt;s0 -->
<g id="edge2" class="edge">
<title>s0&#45;&gt;s0</title>
<path fill="none" stroke="#000000" d="M43.8066,-112.6914C53.5625,-113.043 62,-111.8125 62,-109 62,-107.2422 58.7041,-106.1024 53.8504,-105.5805"/>
<polygon fill="#000000" stroke="#000000" points="53.8977,-102.0806 43.8066,-105.3086 53.7082,-109.078 53.8977,-102.0806"/>
<text text-anchor="middle" x="67" y="-105.3" font-family="Times,serif" font-size="14.00" fill="#000000">A</text>
</g>
<!-- s0&#45;&gt;s0 -->
<g id="edge4" class="edge">
<title>s0&#45;&gt;s0</title>
<path fill="none" stroke="#000000" d="M43.1143,-115.3094C61.0956,-118.0953 80,-115.9922 80,-109 80,-103.3188 67.5201,-100.8652 53.1954,-101.6392"/>
<polygon fill="#000000" stroke="#000000" points="52.6972,-98.1721 43.1143,-102.6906 53.4234,-105.1343 52.6972,-98.1721"/>
<text text-anchor="middle" x="91.5" y="-105.3" font-family="Times,serif" font-size="14.00" fill="#000000">A,B</text>
</g>
<!-- s1 -->
<g id="node2" class="node">
<title>s1</title>
<ellipse fill="none" stroke="#000000" cx="22" cy="-18" rx="18" ry="18"/>
<text text-anchor="middle" x="22" y="-14.3" font-family="Times,serif" font-size="14.00" fill="#000000">1</text>
</g>
<!-- s0&#45;&gt;s1 -->
<g id="edge1" class="edge">
<title>s0&#45;&gt;s1</title>
<path fill="none" stroke="#000000" d="M20.5446,-86.7912C20.055,-76.7739 19.7004,-64.7929 20,-54 20.0674,-51.5714 20.1603,-49.0517 20.2695,-46.5244"/>
<polygon fill="#000000" stroke="#000000" points="23.7767,-46.4699 20.786,-36.3059 16.7856,-46.1165 23.7767,-46.4699"/>
</g>
<!-- s0&#45;&gt;s1 -->
<g id="edge3" class="edge">
<title>s0&#45;&gt;s1</title>
<path fill="none" stroke="#000000" d="M22,-86.9714C22,-74.8075 22,-59.5615 22,-46.499"/>
<polygon fill="#000000" stroke="#000000" points="25.5001,-46.1556 22,-36.1556 18.5001,-46.1556 25.5001,-46.1556"/>
<text text-anchor="middle" x="27" y="-57.8" font-family="Times,serif" font-size="14.00" fill="#000000">B</text>
</g>
<!-- s1&#45;&gt;s1 -->
<g id="edge5" class="edge">
<title>s1&#45;&gt;s1</title>
<path fill="none" stroke="#000000" d="M40.1527,-19.8995C49.5391,-20.1918 58,-19.5586 58,-18 58,-17.0502 54.8581,-16.4441 50.2796,-16.1816"/>
<polygon fill="#000000" stroke="#000000" points="50.1805,-12.6808 40.1527,-16.1005 50.1243,-19.6806 50.1805,-12.6808"/>
</g>
<!-- s1&#45;&gt;s1 -->
<g id="edge6" class="edge">
<title>s1&#45;&gt;s1</title>
<path fill="none" stroke="#000000" d="M39.9782,-21.1567C57.1996,-22.8462 76,-21.7939 76,-18 76,-14.9471 63.8264,-13.6694 50.0978,-14.1671"/>
<polygon fill="#000000" stroke="#000000" points="49.7226,-10.6843 39.9782,-14.8433 50.1894,-17.6687 49.7226,-10.6843"/>
<text text-anchor="middle" x="81" y="-14.3" font-family="Times,serif" font-size="14.00" fill="#000000">A</text>
</g>
<!-- s1&#45;&gt;s1 -->
<g id="edge7" class="edge">
<title>s1&#45;&gt;s1</title>
<path fill="none" stroke="#000000" d="M39.7154,-21.9322C64.1143,-25.5246 94,-24.2139 94,-18 94,-12.6357 71.7275,-10.9254 49.94,-12.8693"/>
<polygon fill="#000000" stroke="#000000" points="49.2399,-9.4273 39.7154,-14.0678 50.0549,-16.3797 49.2399,-9.4273"/>
<text text-anchor="middle" x="99" y="-14.3" font-family="Times,serif" font-size="14.00" fill="#000000">B</text>
</g>
<!-- s1&#45;&gt;s1 -->
<g id="edge8" class="edge">
<title>s1&#45;&gt;s1</title>
<path fill="none" stroke="#000000" d="M39.6705,-22.4835C70.8525,-28.1898 112,-26.6953 112,-18 112,-10.2218 79.0744,-8.2055 49.8093,-11.9513"/>
<polygon fill="#000000" stroke="#000000" points="49.0194,-8.5317 39.6705,-13.5165 50.0874,-15.4497 49.0194,-8.5317"/>
<text text-anchor="middle" x="123.5" y="-14.3" font-family="Times,serif" font-size="14.00" fill="#000000">A,B</text>
</g>
<!-- __start0 -->
<g id="node3" class="node">
<title>__start0</title>
</g>
<!-- __start0&#45;&gt;s0 -->
<g id="edge9" class="edge">
<title>__start0&#45;&gt;s0</title>
<path fill="none" stroke="#000000" d="M22,-167.8318C22,-164.9791 22,-153.4119 22,-141.2796"/>
<polygon fill="#000000" stroke="#000000" points="25.5001,-141.1344 22,-131.1345 18.5001,-141.1345 25.5001,-141.1344"/>
</g>
</g>
</svg>
