<?xml version="1.0" encoding="UTF-8" standalone="no"?>
<!DOCTYPE svg PUBLIC "-//W3C//DTD SVG 1.1//EN"
 "http://www.w3.org/Graphics/SVG/1.1/DTD/svg11.dtd">
<!-- Generated by graphviz version 2.40.1 (20161225.0304)
 -->
<!-- Title: %3 Pages: 1 -->
<svg width="230pt" height="212pt"
 viewBox="0.00 0.00 230.00 212.00" xmlns="http://www.w3.org/2000/svg" xmlns:xlink="http://www.w3.org/1999/xlink">
<g id="graph0" class="graph" transform="scale(1 1) rotate(0) translate(4 208)">
<title>%3</title>
<polygon fill="#ffffff" stroke="transparent" points="-4,4 -4,-208 226,-208 226,4 -4,4"/>
<!-- fake -->
<g id="node1" class="node">
<title>fake</title>
</g>
<!-- 0 -->
<g id="node2" class="node">
<title>0</title>
<ellipse fill="none" stroke="#000000" cx="27" cy="-113" rx="27" ry="18"/>
<text text-anchor="middle" x="27" y="-109.3" font-family="Times,serif" font-size="14.00" fill="#000000">0</text>
</g>
<!-- fake&#45;&gt;0 -->
<g id="edge1" class="edge">
<title>fake&#45;&gt;0</title>
<path fill="none" stroke="#000000" stroke-width="2" d="M27,-167.9551C27,-159.8828 27,-150.1764 27,-141.1817"/>
<polygon fill="#000000" stroke="#000000" stroke-width="2" points="30.5001,-141.0903 27,-131.0904 23.5001,-141.0904 30.5001,-141.0903"/>
</g>
<!-- 0&#45;&gt;0 -->
<g id="edge2" class="edge">
<title>0&#45;&gt;0</title>
<path fill="none" stroke="#000000" d="M53.7949,-116.3676C63.7804,-116.478 72,-115.3555 72,-113 72,-111.5278 68.7892,-110.5373 63.9433,-110.0283"/>
<polygon fill="#000000" stroke="#000000" points="63.9237,-106.525 53.7949,-109.6324 63.6508,-113.5197 63.9237,-106.525"/>
<text text-anchor="middle" x="83.5" y="-109.3" font-family="Times,serif" font-size="14.00" fill="#000000">{B}</text>
</g>
<!-- 0&#45;&gt;0 -->
<g id="edge3" class="edge">
<title>0&#45;&gt;0</title>
<path fill="none" stroke="#000000" d="M52.7834,-118.8782C73.2872,-121.0766 95,-119.1172 95,-113 95,-107.8864 79.8273,-105.6782 62.8715,-106.3755"/>
<polygon fill="#000000" stroke="#000000" points="62.4979,-102.8935 52.7834,-107.1218 63.0144,-109.8744 62.4979,-102.8935"/>
<text text-anchor="middle" x="102" y="-109.3" font-family="Times,serif" font-size="14.00" fill="#000000">{}</text>
</g>
<!-- 1 -->
<g id="node3" class="node">
<title>1</title>
<ellipse fill="none" stroke="#000000" cx="27" cy="-22" rx="18" ry="18"/>
<ellipse fill="none" stroke="#000000" cx="27" cy="-22" rx="22" ry="22"/>
<text text-anchor="middle" x="27" y="-18.3" font-family="Times,serif" font-size="14.00" fill="#000000">1</text>
</g>
<!-- 0&#45;&gt;1 -->
<g id="edge4" class="edge">
<title>0&#45;&gt;1</title>
<path fill="none" stroke="#000000" d="M14.4254,-96.6841C10.6239,-90.805 6.9442,-83.9099 5,-77 2.3125,-67.4483 4.7758,-57.2839 8.8891,-48.3254"/>
<polygon fill="#000000" stroke="#000000" points="11.9794,-49.9686 13.6262,-39.5025 5.8121,-46.6573 11.9794,-49.9686"/>
<text text-anchor="middle" x="17" y="-65.8" font-family="Times,serif" font-size="14.00" fill="#000000">{A}</text>
</g>
<!-- 0&#45;&gt;1 -->
<g id="edge5" class="edge">
<title>0&#45;&gt;1</title>
<path fill="none" stroke="#000000" d="M28.214,-94.6941C28.537,-89.0251 28.8402,-82.7566 29,-77 29.2036,-69.6642 29.105,-61.7795 28.8673,-54.3357"/>
<polygon fill="#000000" stroke="#000000" points="32.359,-54.0583 28.4554,-44.2088 25.3647,-54.3428 32.359,-54.0583"/>
<text text-anchor="middle" x="49" y="-65.8" font-family="Times,serif" font-size="14.00" fill="#000000">{A, B}</text>
</g>
<!-- 1&#45;&gt;1 -->
<g id="edge6" class="edge">
<title>1&#45;&gt;1</title>
<path fill="none" stroke="#000000" d="M49.2124,-24.1305C58.7952,-24.3049 67,-23.5947 67,-22 67,-21.0282 63.9533,-20.3849 59.4045,-20.0701"/>
<polygon fill="#000000" stroke="#000000" points="59.2793,-16.567 49.2124,-19.8695 59.1415,-23.5657 59.2793,-16.567"/>
<text text-anchor="middle" x="78.5" y="-18.3" font-family="Times,serif" font-size="14.00" fill="#000000">{B}</text>
</g>
<!-- 1&#45;&gt;1 -->
<g id="edge7" class="edge">
<title>1&#45;&gt;1</title>
<path fill="none" stroke="#000000" d="M48.8734,-25.6008C68.4119,-27.2432 90,-26.043 90,-22 90,-18.6519 75.1951,-17.2533 59.0095,-17.8043"/>
<polygon fill="#000000" stroke="#000000" points="58.6511,-14.3192 48.8734,-18.3992 59.0613,-21.3072 58.6511,-14.3192"/>
<text text-anchor="middle" x="102" y="-18.3" font-family="Times,serif" font-size="14.00" fill="#000000">{A}</text>
</g>
<!-- 1&#45;&gt;1 -->
<g id="edge8" class="edge">
<title>1&#45;&gt;1</title>
<path fill="none" stroke="#000000" d="M48.6741,-26.5341C77.1107,-30.1823 114,-28.6709 114,-22 114,-16.1108 85.25,-14.2428 58.9466,-16.3959"/>
<polygon fill="#000000" stroke="#000000" points="58.2576,-12.9486 48.6741,-17.4659 58.9829,-19.911 58.2576,-12.9486"/>
<text text-anchor="middle" x="121" y="-18.3" font-family="Times,serif" font-size="14.00" fill="#000000">{}</text>
</g>
<!-- 1&#45;&gt;1 -->
<g id="edge9" class="edge">
<title>1&#45;&gt;1</title>
<path fill="none" stroke="#000000" d="M48.5781,-27.2978C83.602,-33.0872 132,-31.3213 132,-22 132,-13.5526 92.2513,-11.3103 58.7303,-15.2731"/>
<polygon fill="#000000" stroke="#000000" points="57.9926,-11.8424 48.5781,-16.7022 58.9684,-18.774 57.9926,-11.8424"/>
<text text-anchor="middle" x="152" y="-18.3" font-family="Times,serif" font-size="14.00" fill="#000000">{A, B}</text>
</g>
</g>
</svg>
