<?xml version="1.0" encoding="UTF-8" standalone="no"?>
<!DOCTYPE svg PUBLIC "-//W3C//DTD SVG 1.1//EN"
 "http://www.w3.org/Graphics/SVG/1.1/DTD/svg11.dtd">
<!-- Generated by graphviz version 2.40.1 (20161225.0304)
 -->
<!-- Title: g Pages: 1 -->
<svg width="167pt" height="177pt"
 viewBox="0.00 0.00 167.00 177.00" xmlns="http://www.w3.org/2000/svg" xmlns:xlink="http://www.w3.org/1999/xlink">
<g id="graph0" class="graph" transform="scale(1 1) rotate(0) translate(4 173)">
<title>g</title>
<polygon fill="#ffffff" stroke="transparent" points="-4,4 -4,-173 163,-173 163,4 -4,4"/>
<!-- s0 -->
<g id="node1" class="node">
<title>s0</title>
<ellipse fill="none" stroke="#000000" cx="22" cy="-113" rx="18" ry="18"/>
<text text-anchor="middle" x="22" y="-109.3" font-family="Times,serif" font-size="14.00" fill="#000000">0</text>
</g>
<!-- s0&#45;&gt;s0 -->
<g id="edge1" class="edge">
<title>s0&#45;&gt;s0</title>
<path fill="none" stroke="#000000" d="M39.7817,-116.2357C49.3149,-116.7856 58,-115.707 58,-113 58,-111.3504 54.7749,-110.3055 50.0981,-109.8653"/>
<polygon fill="#000000" stroke="#000000" points="49.8156,-106.3625 39.7817,-109.7643 49.7469,-113.3621 49.8156,-106.3625"/>
</g>
<!-- s0&#45;&gt;s0 -->
<g id="edge3" class="edge">
<title>s0&#45;&gt;s0</title>
<path fill="none" stroke="#000000" d="M39.4203,-118.3159C56.791,-121.3462 76,-119.5742 76,-113 76,-107.7098 63.5617,-105.5292 49.652,-106.4581"/>
<polygon fill="#000000" stroke="#000000" points="48.9328,-103.0192 39.4203,-107.6841 49.7657,-109.9695 48.9328,-103.0192"/>
<text text-anchor="middle" x="81" y="-109.3" font-family="Times,serif" font-size="14.00" fill="#000000">B</text>
</g>
<!-- s1 -->
<g id="node2" class="node">
<title>s1</title>
<ellipse fill="none" stroke="#000000" cx="22" cy="-22" rx="18" ry="18"/>
<ellipse fill="none" stroke="#000000" cx="22" cy="-22" rx="22" ry="22"/>
<text text-anchor="middle" x="22" y="-18.3" font-family="Times,serif" font-size="14.00" fill="#000000">1</text>
</g>
<!-- s0&#45;&gt;s1 -->
<g id="edge2" class="edge">
<title>s0&#45;&gt;s1</title>
<path fill="none" stroke="#000000" d="M13.7167,-96.9431C11.0108,-90.8628 8.3544,-83.7721 7,-77 5.3165,-68.5823 6.4955,-59.5551 8.7908,-51.2977"/>
<polygon fill="#000000" stroke="#000000" points="12.1484,-52.2941 12.0266,-41.6999 5.5152,-50.0577 12.1484,-52.2941"/>
<text text-anchor="middle" x="12" y="-65.8" font-family="Times,serif" font-size="14.00" fill="#000000">A</text>
</g>
<!-- s0&#45;&gt;s1 -->
<g id="edge4" class="edge">
<title>s0&#45;&gt;s1</title>
<path fill="none" stroke="#000000" d="M22,-94.5848C22,-83.1105 22,-68.0231 22,-54.5774"/>
<polygon fill="#000000" stroke="#000000" points="25.5001,-54.2465 22,-44.2465 18.5001,-54.2466 25.5001,-54.2465"/>
<text text-anchor="middle" x="33.5" y="-65.8" font-family="Times,serif" font-size="14.00" fill="#000000">A,B</text>
</g>
<!-- s1&#45;&gt;s1 -->
<g id="edge5" class="edge">
<title>s1&#45;&gt;s1</title>
<path fill="none" stroke="#000000" d="M44.2124,-24.1305C53.7952,-24.3049 62,-23.5947 62,-22 62,-21.0282 58.9533,-20.3849 54.4045,-20.0701"/>
<polygon fill="#000000" stroke="#000000" points="54.2793,-16.567 44.2124,-19.8695 54.1415,-23.5657 54.2793,-16.567"/>
</g>
<!-- s1&#45;&gt;s1 -->
<g id="edge6" class="edge">
<title>s1&#45;&gt;s1</title>
<path fill="none" stroke="#000000" d="M43.7173,-25.6805C61.5157,-27.2024 80,-25.9756 80,-22 80,-18.8009 68.031,-17.3817 54.0817,-17.7423"/>
<polygon fill="#000000" stroke="#000000" points="53.5072,-14.2688 43.7173,-18.3195 53.8965,-21.258 53.5072,-14.2688"/>
<text text-anchor="middle" x="85" y="-18.3" font-family="Times,serif" font-size="14.00" fill="#000000">A</text>
</g>
<!-- s1&#45;&gt;s1 -->
<g id="edge7" class="edge">
<title>s1&#45;&gt;s1</title>
<path fill="none" stroke="#000000" d="M43.7844,-26.7489C68.9032,-30.1191 98,-28.5361 98,-22 98,-16.3319 76.1188,-14.3887 53.9257,-16.1704"/>
<polygon fill="#000000" stroke="#000000" points="53.3572,-12.7111 43.7844,-17.2511 54.099,-19.6717 53.3572,-12.7111"/>
<text text-anchor="middle" x="103" y="-18.3" font-family="Times,serif" font-size="14.00" fill="#000000">B</text>
</g>
<!-- s1&#45;&gt;s1 -->
<g id="edge8" class="edge">
<title>s1&#45;&gt;s1</title>
<path fill="none" stroke="#000000" d="M43.714,-27.5038C75.815,-33.0436 116,-31.209 116,-22 116,-13.7263 83.563,-11.4051 53.6944,-15.0365"/>
<polygon fill="#000000" stroke="#000000" points="53.1022,-11.5858 43.714,-16.4962 54.1153,-18.5121 53.1022,-11.5858"/>
<text text-anchor="middle" x="127.5" y="-18.3" font-family="Times,serif" font-size="14.00" fill="#000000">A,B</text>
</g>
<!-- __start0 -->
<g id="node3" class="node">
<title>__start0</title>
</g>
<!-- __start0&#45;&gt;s0 -->
<g id="edge9" class="edge">
<title>__start0&#45;&gt;s0</title>
<path fill="none" stroke="#000000" d="M22,-167.8767C22,-165.0766 22,-153.2753 22,-141.3305"/>
<polygon fill="#000000" stroke="#000000" points="25.5001,-141.0192 22,-131.0193 18.5001,-141.0193 25.5001,-141.0192"/>
</g>
</g>
</svg>
