<?xml version="1.0" encoding="UTF-8" standalone="no"?>
<!DOCTYPE svg PUBLIC "-//W3C//DTD SVG 1.1//EN"
 "http://www.w3.org/Graphics/SVG/1.1/DTD/svg11.dtd">
<!-- Generated by graphviz version 2.40.1 (20161225.0304)
 -->
<!-- Title: g Pages: 1 -->
<svg width="161pt" height="191pt"
 viewBox="0.00 0.00 160.90 190.79" xmlns="http://www.w3.org/2000/svg" xmlns:xlink="http://www.w3.org/1999/xlink">
<g id="graph0" class="graph" transform="scale(1 1) rotate(0) translate(4 186.7924)">
<title>g</title>
<polygon fill="#ffffff" stroke="transparent" points="-4,4 -4,-186.7924 156.8962,-186.7924 156.8962,4 -4,4"/>
<!-- s0 -->
<g id="node1" class="node">
<title>s0</title>
<ellipse fill="none" stroke="#000000" cx="25.4481" cy="-123.3443" rx="21.3963" ry="21.3963"/>
<text text-anchor="middle" x="25.4481" y="-119.6443" font-family="Times,serif" font-size="14.00" fill="#000000">s0</text>
</g>
<!-- s0&#45;&gt;s0 -->
<g id="edge2" class="edge">
<title>s0&#45;&gt;s0</title>
<path fill="none" stroke="#000000" d="M46.1492,-130.2953C56.1064,-131.1535 64.8962,-128.8365 64.8962,-123.3443 64.8962,-119.9117 61.4627,-117.7194 56.4566,-116.7673"/>
<polygon fill="#000000" stroke="#000000" points="56.2696,-113.2583 46.1492,-116.3932 56.0157,-120.2537 56.2696,-113.2583"/>
<text text-anchor="middle" x="70.3962" y="-119.6443" font-family="Times,serif" font-size="14.00" fill="#000000">B</text>
</g>
<!-- s1 -->
<g id="node2" class="node">
<title>s1</title>
<ellipse fill="none" stroke="#000000" cx="25.4481" cy="-25.4481" rx="21.4044" ry="21.4044"/>
<ellipse fill="none" stroke="#000000" cx="25.4481" cy="-25.4481" rx="25.3963" ry="25.3963"/>
<text text-anchor="middle" x="25.4481" y="-21.7481" font-family="Times,serif" font-size="14.00" fill="#000000">s1</text>
</g>
<!-- s0&#45;&gt;s1 -->
<g id="edge1" class="edge">
<title>s0&#45;&gt;s1</title>
<path fill="none" stroke="#000000" d="M15.7649,-103.735C13.1825,-97.5413 10.75,-90.5697 9.4481,-83.8962 7.8012,-75.4539 8.8381,-66.4426 11.0126,-58.0868"/>
<polygon fill="#000000" stroke="#000000" points="14.4291,-58.8924 14.1253,-48.3019 7.7585,-56.7703 14.4291,-58.8924"/>
<text text-anchor="middle" x="14.9481" y="-72.6962" font-family="Times,serif" font-size="14.00" fill="#000000">A</text>
</g>
<!-- s0&#45;&gt;s1 -->
<g id="edge3" class="edge">
<title>s0&#45;&gt;s1</title>
<path fill="none" stroke="#000000" d="M25.4481,-101.618C25.4481,-89.6777 25.4481,-74.5687 25.4481,-60.9613"/>
<polygon fill="#000000" stroke="#000000" points="28.9482,-60.9255 25.4481,-50.9256 21.9482,-60.9256 28.9482,-60.9255"/>
<text text-anchor="middle" x="38.4481" y="-72.6962" font-family="Times,serif" font-size="14.00" fill="#000000">A,B</text>
</g>
<!-- s1&#45;&gt;s1 -->
<g id="edge4" class="edge">
<title>s1&#45;&gt;s1</title>
<path fill="none" stroke="#000000" d="M50.8861,-28.5609C60.7214,-28.6992 68.8962,-27.6616 68.8962,-25.4481 68.8962,-24.0646 65.7029,-23.1405 60.9067,-22.6758"/>
<polygon fill="#000000" stroke="#000000" points="60.9992,-19.177 50.8861,-22.3353 60.7614,-26.1729 60.9992,-19.177"/>
<text text-anchor="middle" x="74.3962" y="-21.7481" font-family="Times,serif" font-size="14.00" fill="#000000">A</text>
</g>
<!-- s1&#45;&gt;s1 -->
<g id="edge5" class="edge">
<title>s1&#45;&gt;s1</title>
<path fill="none" stroke="#000000" d="M50.3758,-30.9928C68.6182,-32.8627 86.8962,-31.0145 86.8962,-25.4481 86.8962,-20.9254 74.8298,-18.8573 60.5202,-19.2437"/>
<polygon fill="#000000" stroke="#000000" points="60.1276,-15.7618 50.3758,-19.9034 60.5819,-22.747 60.1276,-15.7618"/>
<text text-anchor="middle" x="92.3962" y="-21.7481" font-family="Times,serif" font-size="14.00" fill="#000000">B</text>
</g>
<!-- s1&#45;&gt;s1 -->
<g id="edge6" class="edge">
<title>s1&#45;&gt;s1</title>
<path fill="none" stroke="#000000" d="M50.2588,-32.6939C76.0269,-37.0919 104.8962,-34.6766 104.8962,-25.4481 104.8962,-17.4092 82.9901,-14.5402 60.3099,-16.8411"/>
<polygon fill="#000000" stroke="#000000" points="59.6987,-13.3919 50.2588,-18.2023 60.6381,-20.3286 59.6987,-13.3919"/>
<text text-anchor="middle" x="117.8962" y="-21.7481" font-family="Times,serif" font-size="14.00" fill="#000000">A,B</text>
</g>
<!-- __start0 -->
<g id="node3" class="node">
<title>__start0</title>
</g>
<!-- __start0&#45;&gt;s0 -->
<g id="edge7" class="edge">
<title>__start0&#45;&gt;s0</title>
<path fill="none" stroke="#000000" d="M25.4481,-181.6304C25.4481,-178.7844 25.4481,-167.1836 25.4481,-155.0723"/>
<polygon fill="#000000" stroke="#000000" points="28.9482,-154.9596 25.4481,-144.9597 21.9482,-154.9597 28.9482,-154.9596"/>
</g>
</g>
</svg>
