<?xml version="1.0" encoding="UTF-8" standalone="no"?>
<!DOCTYPE svg PUBLIC "-//W3C//DTD SVG 1.1//EN"
 "http://www.w3.org/Graphics/SVG/1.1/DTD/svg11.dtd">
<!-- Generated by graphviz version 2.40.1 (20161225.0304)
 -->
<!-- Title: %3 Pages: 1 -->
<svg width="234pt" height="212pt"
 viewBox="0.00 0.00 234.39 212.00" xmlns="http://www.w3.org/2000/svg" xmlns:xlink="http://www.w3.org/1999/xlink">
<g id="graph0" class="graph" transform="scale(1 1) rotate(0) translate(4 208)">
<title>%3</title>
<polygon fill="#ffffff" stroke="transparent" points="-4,4 -4,-208 230.3864,-208 230.3864,4 -4,4"/>
<!-- fake -->
<g id="node1" class="node">
<title>fake</title>
</g>
<!-- 0 -->
<g id="node2" class="node">
<title>0</title>
<ellipse fill="none" stroke="#000000" cx="31.3864" cy="-113" rx="27" ry="18"/>
<text text-anchor="middle" x="31.3864" y="-109.3" font-family="Times,serif" font-size="14.00" fill="#000000">0</text>
</g>
<!-- fake&#45;&gt;0 -->
<g id="edge1" class="edge">
<title>fake&#45;&gt;0</title>
<path fill="none" stroke="#000000" stroke-width="2" d="M31.3864,-167.9551C31.3864,-159.8828 31.3864,-150.1764 31.3864,-141.1817"/>
<polygon fill="#000000" stroke="#000000" stroke-width="2" points="34.8865,-141.0903 31.3864,-131.0904 27.8865,-141.0904 34.8865,-141.0903"/>
</g>
<!-- 0&#45;&gt;0 -->
<g id="edge2" class="edge">
<title>0&#45;&gt;0</title>
<path fill="none" stroke="#000000" d="M58.1812,-116.3676C68.1668,-116.478 76.3864,-115.3555 76.3864,-113 76.3864,-111.5278 73.1756,-110.5373 68.3296,-110.0283"/>
<polygon fill="#000000" stroke="#000000" points="68.3101,-106.525 58.1812,-109.6324 68.0372,-113.5197 68.3101,-106.525"/>
<text text-anchor="middle" x="83.3864" y="-109.3" font-family="Times,serif" font-size="14.00" fill="#000000">{}</text>
</g>
<!-- 0&#45;&gt;0 -->
<g id="edge3" class="edge">
<title>0&#45;&gt;0</title>
<path fill="none" stroke="#000000" d="M56.9437,-118.9882C75.6467,-121.0078 94.3864,-119.0117 94.3864,-113 94.3864,-108.0685 81.7762,-105.8392 66.9204,-106.3121"/>
<polygon fill="#000000" stroke="#000000" points="66.6743,-102.8206 56.9437,-107.0118 67.1641,-109.8035 66.6743,-102.8206"/>
<text text-anchor="middle" x="105.8864" y="-109.3" font-family="Times,serif" font-size="14.00" fill="#000000">{B}</text>
</g>
<!-- 1 -->
<g id="node3" class="node">
<title>1</title>
<ellipse fill="none" stroke="#000000" cx="31.3864" cy="-22" rx="18" ry="18"/>
<ellipse fill="none" stroke="#000000" cx="31.3864" cy="-22" rx="22" ry="22"/>
<text text-anchor="middle" x="31.3864" y="-18.3" font-family="Times,serif" font-size="14.00" fill="#000000">1</text>
</g>
<!-- 0&#45;&gt;1 -->
<g id="edge4" class="edge">
<title>0&#45;&gt;1</title>
<path fill="none" stroke="#000000" d="M14.8786,-98.624C5.7114,-88.8188 -3.0315,-75.2536 1.3864,-62 3.2856,-56.3023 6.3495,-50.7627 9.8099,-45.7119"/>
<polygon fill="#000000" stroke="#000000" points="12.61,-47.8118 15.872,-37.7316 7.0359,-43.5775 12.61,-47.8118"/>
<text text-anchor="middle" x="21.3864" y="-65.8" font-family="Times,serif" font-size="14.00" fill="#000000">{A, B}</text>
</g>
<!-- 0&#45;&gt;1 -->
<g id="edge5" class="edge">
<title>0&#45;&gt;1</title>
<path fill="none" stroke="#000000" d="M37.3424,-95.2549C38.9959,-89.5001 40.5629,-83.0416 41.3864,-77 42.4527,-69.177 41.8315,-60.7719 40.4876,-52.9446"/>
<polygon fill="#000000" stroke="#000000" points="43.8939,-52.1358 38.3857,-43.0853 37.0477,-53.5953 43.8939,-52.1358"/>
<text text-anchor="middle" x="53.3864" y="-65.8" font-family="Times,serif" font-size="14.00" fill="#000000">{A}</text>
</g>
<!-- 1&#45;&gt;1 -->
<g id="edge6" class="edge">
<title>1&#45;&gt;1</title>
<path fill="none" stroke="#000000" d="M53.5987,-24.1305C63.1816,-24.3049 71.3864,-23.5947 71.3864,-22 71.3864,-21.0282 68.3396,-20.3849 63.7909,-20.0701"/>
<polygon fill="#000000" stroke="#000000" points="63.6657,-16.567 53.5987,-19.8695 63.5279,-23.5657 63.6657,-16.567"/>
<text text-anchor="middle" x="91.3864" y="-18.3" font-family="Times,serif" font-size="14.00" fill="#000000">{A, B}</text>
</g>
<!-- 1&#45;&gt;1 -->
<g id="edge7" class="edge">
<title>1&#45;&gt;1</title>
<path fill="none" stroke="#000000" d="M53.2311,-25.3331C78.3195,-27.3561 111.3864,-26.2451 111.3864,-22 111.3864,-18.3021 86.2951,-16.9824 63.2431,-18.0408"/>
<polygon fill="#000000" stroke="#000000" points="62.9931,-14.5495 53.2311,-18.6669 63.4301,-21.5358 62.9931,-14.5495"/>
<text text-anchor="middle" x="122.8864" y="-18.3" font-family="Times,serif" font-size="14.00" fill="#000000">{B}</text>
</g>
<!-- 1&#45;&gt;1 -->
<g id="edge8" class="edge">
<title>1&#45;&gt;1</title>
<path fill="none" stroke="#000000" d="M53.1832,-26.3067C86.0296,-30.2412 134.3864,-28.8057 134.3864,-22 134.3864,-15.859 95.0131,-14.0904 63.1904,-16.6942"/>
<polygon fill="#000000" stroke="#000000" points="62.786,-13.2171 53.1832,-17.6933 63.4814,-20.1825 62.786,-13.2171"/>
<text text-anchor="middle" x="141.3864" y="-18.3" font-family="Times,serif" font-size="14.00" fill="#000000">{}</text>
</g>
<!-- 1&#45;&gt;1 -->
<g id="edge9" class="edge">
<title>1&#45;&gt;1</title>
<path fill="none" stroke="#000000" d="M53.0687,-27.0853C92.0486,-33.1287 152.3864,-31.4336 152.3864,-22 152.3864,-13.3403 101.5417,-11.2015 63.0475,-15.5837"/>
<polygon fill="#000000" stroke="#000000" points="62.5181,-12.1232 53.0687,-16.9147 63.4437,-19.0617 62.5181,-12.1232"/>
<text text-anchor="middle" x="164.3864" y="-18.3" font-family="Times,serif" font-size="14.00" fill="#000000">{A}</text>
</g>
</g>
</svg>
